<svg width="384" height="313" viewBox="0 0 384 313" fill="none" xmlns="http://www.w3.org/2000/svg">
<path d="M228.179 76.62C234.944 76.62 240.844 76.384 245.879 75.912L244.699 80.632C239.507 82.048 234.787 84.5653 230.539 88.184C226.448 91.6453 221.807 97.4667 216.615 105.648L126.463 244.18L120.563 243.944L114.427 244.18L95.783 95.736C95.1536 90.544 93.5803 86.768 91.063 84.408C88.703 82.048 86.1856 80.7893 83.511 80.632L84.691 75.912C92.715 76.384 104.043 76.62 118.675 76.62C134.566 76.62 146.602 76.384 154.783 75.912L153.603 80.632C146.523 80.9467 141.567 82.048 138.735 83.936C135.903 85.6667 134.487 89.2853 134.487 94.792C134.487 97.152 134.566 99.04 134.723 100.456L146.523 205.004L208.591 109.66C213.311 102.423 215.671 96.6013 215.671 92.196C215.671 88.42 214.019 85.6667 210.715 83.936C207.411 82.048 202.534 80.9467 196.083 80.632L197.263 75.912C203.399 76.384 213.704 76.62 228.179 76.62ZM330.009 74.26C324.031 89.364 319.389 105.412 316.085 122.404H311.365C312.309 117.841 312.781 113.436 312.781 109.188C312.781 99.748 309.871 92.2747 304.049 86.768C298.228 81.104 289.889 78.272 279.033 78.272C270.537 78.272 263.615 80.396 258.265 84.644C253.073 88.892 250.477 95.3427 250.477 103.996C250.477 111.233 252.601 118.077 256.849 124.528C261.255 130.821 267.863 138.688 276.673 148.128C283.281 155.051 288.473 160.872 292.249 165.592C296.025 170.312 299.251 175.504 301.925 181.168C304.6 186.832 305.937 192.811 305.937 199.104C305.937 209.645 302.555 218.456 295.789 225.536C289.024 232.616 280.607 237.887 270.537 241.348C260.625 244.652 250.713 246.304 240.801 246.304C230.732 246.304 222.944 245.439 217.437 243.708C211.931 241.977 206.109 239.224 199.973 235.448C196.512 233.088 193.759 231.908 191.713 231.908C189.668 231.908 188.016 232.773 186.757 234.504C185.656 236.077 184.004 239.46 181.801 244.652H177.081C179.599 238.673 182.037 231.515 184.397 223.176C186.915 214.68 189.825 202.959 193.129 188.012H197.849C196.433 193.991 195.725 199.576 195.725 204.768C195.725 216.568 198.951 225.615 205.401 231.908C212.009 238.044 221.607 241.112 234.193 241.112C254.489 241.112 264.637 232.852 264.637 216.332C264.637 207.521 262.513 199.655 258.265 192.732C254.175 185.652 247.96 177.549 239.621 168.424C233.957 161.973 229.473 156.624 226.169 152.376C222.865 147.971 220.033 143.015 217.673 137.508C215.471 132.001 214.369 126.101 214.369 119.808C214.369 109.739 217.201 101.164 222.865 94.084C228.687 86.8467 236.081 81.4973 245.049 78.036C254.017 74.4173 263.143 72.608 272.425 72.608C280.607 72.608 287.608 73.552 293.429 75.44C299.251 77.328 304.679 79.8453 309.713 82.992C313.804 85.5093 316.4 86.768 317.501 86.768C318.76 86.768 319.94 85.824 321.041 83.936C322.3 81.8907 323.716 78.6653 325.289 74.26H330.009Z" fill="#D7695C"/>
<path d="M107.507 150.384C109.003 150.384 110.117 150.34 110.851 150.252V151.132C110.235 151.308 109.677 151.675 109.179 152.232C108.68 152.789 108.24 153.684 107.859 154.916L102.007 173.088C101.684 173.059 101.2 173.044 100.555 173.044C99.9387 173.044 99.4693 173.059 99.1467 173.088L93.1627 156.764L88.2787 173.088C87.9853 173.059 87.516 173.044 86.8707 173.044C86.2253 173.044 85.7413 173.059 85.4187 173.088L78.4667 153.64C78.1147 152.613 77.7187 151.953 77.2787 151.66C76.8387 151.337 76.384 151.176 75.9147 151.176V150.252C77.8213 150.428 79.904 150.516 82.1627 150.516C83.6293 150.516 85.536 150.428 87.8827 150.252V151.176C86.9147 151.176 86.2107 151.249 85.7707 151.396C85.36 151.543 85.1547 151.895 85.1547 152.452C85.1547 152.833 85.228 153.229 85.3747 153.64L89.3347 166.092L94.1307 150.208L95.7587 150.252L97.3427 150.208L103.063 167.016L105.835 158.172C106.245 156.793 106.451 155.679 106.451 154.828C106.451 152.54 105.292 151.308 102.975 151.132V150.252C104.353 150.34 105.864 150.384 107.507 150.384ZM124.203 170.008C126.608 170.008 128.544 168.835 130.011 166.488L130.803 166.752C130.216 168.659 129.16 170.287 127.635 171.636C126.139 172.956 124.262 173.616 122.003 173.616C118.894 173.616 116.415 172.633 114.567 170.668C112.748 168.673 111.839 165.74 111.839 161.868C111.839 157.908 112.822 154.887 114.787 152.804C116.752 150.692 119.363 149.636 122.619 149.636C128.134 149.636 130.891 152.892 130.891 159.404H118.527C118.498 159.844 118.483 160.533 118.483 161.472C118.483 163.408 118.747 165.021 119.275 166.312C119.832 167.603 120.536 168.541 121.387 169.128C122.267 169.715 123.206 170.008 124.203 170.008ZM122.355 150.56C121.299 150.56 120.419 151.22 119.715 152.54C119.04 153.831 118.615 155.84 118.439 158.568H125.347C125.406 156.251 125.171 154.344 124.643 152.848C124.144 151.323 123.382 150.56 122.355 150.56ZM148.531 149.636C150.907 149.636 152.828 150.619 154.295 152.584C155.761 154.52 156.495 157.336 156.495 161.032C156.495 165.344 155.556 168.527 153.679 170.58C151.801 172.604 149.381 173.616 146.419 173.616C144.395 173.616 142.752 173.103 141.491 172.076C140.435 171.988 139.379 172.105 138.323 172.428C137.267 172.751 136.431 173.176 135.815 173.704L135.155 173.308C135.36 172.575 135.463 171.753 135.463 170.844V143.872C135.463 142.523 135.243 141.54 134.803 140.924C134.392 140.308 133.673 140 132.647 140V139.076C133.556 139.164 134.465 139.208 135.375 139.208C137.927 139.208 140.068 139.003 141.799 138.592V153.816C142.415 152.467 143.309 151.44 144.483 150.736C145.656 150.003 147.005 149.636 148.531 149.636ZM145.055 172.692C146.668 172.692 147.871 171.783 148.663 169.964C149.455 168.145 149.851 165.373 149.851 161.648C149.851 158.04 149.513 155.459 148.839 153.904C148.164 152.32 147.196 151.528 145.935 151.528C144.996 151.528 144.131 151.88 143.339 152.584C142.576 153.259 142.063 154.183 141.799 155.356V171.504C142.767 172.296 143.852 172.692 145.055 172.692ZM191.138 168.16C191.138 169.509 191.343 170.492 191.754 171.108C192.164 171.724 192.898 172.032 193.954 172.032V172.956C193.044 172.868 192.135 172.824 191.226 172.824C188.615 172.824 186.474 173.029 184.802 173.44V169.656C183.804 172.296 181.898 173.616 179.082 173.616C176.324 173.616 174.124 172.619 172.482 170.624C170.868 168.6 170.076 165.564 170.106 161.516C170.106 158.935 170.516 156.764 171.338 155.004C172.188 153.215 173.347 151.88 174.814 151C176.31 150.091 178.011 149.636 179.918 149.636C182.059 149.636 183.687 150.193 184.802 151.308V143.828C184.802 142.479 184.582 141.496 184.142 140.88C183.731 140.264 183.012 139.956 181.986 139.956V139.032C182.924 139.12 183.834 139.164 184.714 139.164C187.266 139.164 189.407 138.959 191.138 138.548V168.16ZM180.886 171.724C181.854 171.724 182.704 171.372 183.438 170.668C184.2 169.964 184.655 169.011 184.802 167.808V152.408C184.068 151.411 182.998 150.912 181.59 150.912C180.035 150.912 178.832 151.807 177.982 153.596C177.131 155.385 176.72 158.055 176.75 161.604C176.72 165.183 177.058 167.764 177.762 169.348C178.495 170.932 179.536 171.724 180.886 171.724ZM208.722 170.008C211.128 170.008 213.064 168.835 214.53 166.488L215.322 166.752C214.736 168.659 213.68 170.287 212.154 171.636C210.658 172.956 208.781 173.616 206.522 173.616C203.413 173.616 200.934 172.633 199.086 170.668C197.268 168.673 196.358 165.74 196.358 161.868C196.358 157.908 197.341 154.887 199.306 152.804C201.272 150.692 203.882 149.636 207.138 149.636C212.653 149.636 215.41 152.892 215.41 159.404H203.046C203.017 159.844 203.002 160.533 203.002 161.472C203.002 163.408 203.266 165.021 203.794 166.312C204.352 167.603 205.056 168.541 205.906 169.128C206.786 169.715 207.725 170.008 208.722 170.008ZM206.874 150.56C205.818 150.56 204.938 151.22 204.234 152.54C203.56 153.831 203.134 155.84 202.958 158.568H209.866C209.925 156.251 209.69 154.344 209.162 152.848C208.664 151.323 207.901 150.56 206.874 150.56ZM226.67 149.636C227.785 149.636 228.812 149.783 229.75 150.076C230.689 150.34 231.408 150.648 231.906 151C232.2 151.205 232.464 151.308 232.698 151.308C232.962 151.308 233.182 151.176 233.358 150.912C233.564 150.619 233.696 150.208 233.754 149.68H234.678C234.561 151.176 234.502 153.757 234.502 157.424H233.578C233.314 155.488 232.728 153.875 231.818 152.584C230.938 151.264 229.648 150.604 227.946 150.604C227.066 150.604 226.333 150.853 225.746 151.352C225.189 151.851 224.91 152.54 224.91 153.42C224.91 154.417 225.248 155.283 225.922 156.016C226.597 156.72 227.653 157.585 229.09 158.612L230.366 159.536C232.156 160.885 233.476 162.088 234.326 163.144C235.177 164.2 235.602 165.52 235.602 167.104C235.602 168.395 235.221 169.539 234.458 170.536C233.725 171.533 232.728 172.296 231.466 172.824C230.205 173.352 228.812 173.616 227.286 173.616C225.673 173.616 224.294 173.308 223.15 172.692C222.212 172.223 221.537 171.915 221.126 171.768C220.833 171.68 220.569 171.783 220.334 172.076C220.129 172.34 219.968 172.751 219.85 173.308H218.926C219.044 171.636 219.102 168.703 219.102 164.508H220.026C220.613 169.905 222.593 172.604 225.966 172.604C226.817 172.604 227.536 172.355 228.122 171.856C228.738 171.328 229.046 170.536 229.046 169.48C229.046 168.659 228.856 167.925 228.474 167.28C228.122 166.635 227.668 166.063 227.11 165.564C226.553 165.065 225.717 164.376 224.602 163.496C223.282 162.44 222.27 161.589 221.566 160.944C220.892 160.299 220.305 159.536 219.806 158.656C219.337 157.776 219.102 156.793 219.102 155.708C219.102 153.831 219.836 152.349 221.302 151.264C222.769 150.179 224.558 149.636 226.67 149.636ZM244.003 138.9C245.235 138.9 246.203 139.208 246.907 139.824C247.64 140.411 248.007 141.232 248.007 142.288C248.007 143.344 247.64 144.18 246.907 144.796C246.203 145.383 245.235 145.676 244.003 145.676C242.771 145.676 241.788 145.383 241.055 144.796C240.351 144.18 239.999 143.344 239.999 142.288C239.999 141.232 240.351 140.411 241.055 139.824C241.788 139.208 242.771 138.9 244.003 138.9ZM247.435 168.908C247.435 170.111 247.64 170.947 248.051 171.416C248.491 171.856 249.224 172.076 250.251 172.076V173C247.317 172.883 245.367 172.824 244.399 172.824C243.489 172.824 241.451 172.883 238.283 173V172.076C239.339 172.076 240.072 171.856 240.483 171.416C240.893 170.947 241.099 170.111 241.099 168.908V155.048C241.099 153.699 240.893 152.716 240.483 152.1C240.072 151.484 239.339 151.176 238.283 151.176V150.252C239.221 150.34 240.131 150.384 241.011 150.384C243.621 150.384 245.763 150.179 247.435 149.768V168.908ZM273.017 154.476C272.431 154.476 271.932 154.285 271.521 153.904C271.111 153.493 270.905 152.921 270.905 152.188C270.905 151.484 271.081 150.765 271.433 150.032C270.729 150.325 270.143 150.663 269.673 151.044C269.233 151.396 268.852 151.851 268.529 152.408C269.439 153.493 269.893 154.901 269.893 156.632C269.893 158.949 269.087 160.695 267.473 161.868C265.889 163.041 263.777 163.628 261.137 163.628H260.345C259.143 164.332 258.541 165.109 258.541 165.96C258.541 166.899 259.128 167.368 260.301 167.368H265.097C267.679 167.368 269.732 167.852 271.257 168.82C272.812 169.759 273.589 171.211 273.589 173.176C273.589 174.672 273.105 176.021 272.137 177.224C271.199 178.456 269.761 179.439 267.825 180.172C265.889 180.905 263.513 181.272 260.697 181.272C257.852 181.272 255.564 180.905 253.833 180.172C252.132 179.468 251.281 178.441 251.281 177.092C251.281 176.183 251.692 175.361 252.513 174.628C253.335 173.924 254.552 173.367 256.165 172.956L256.561 173.66C255.505 174.54 254.977 175.552 254.977 176.696C254.977 177.928 255.535 178.867 256.649 179.512C257.764 180.187 259.304 180.524 261.269 180.524C263.323 180.524 264.98 180.113 266.241 179.292C267.532 178.471 268.177 177.312 268.177 175.816C268.177 174.848 267.811 174.085 267.077 173.528C266.373 172.971 265.127 172.692 263.337 172.692H260.609C258.732 172.692 257.265 172.384 256.209 171.768C255.153 171.123 254.625 170.155 254.625 168.864C254.625 167.779 255.007 166.811 255.769 165.96C256.532 165.109 257.691 164.288 259.245 163.496C257.133 163.232 255.461 162.528 254.229 161.384C252.997 160.24 252.381 158.656 252.381 156.632C252.381 154.315 253.173 152.569 254.757 151.396C256.371 150.223 258.497 149.636 261.137 149.636C264.071 149.636 266.315 150.325 267.869 151.704C268.427 150.912 269.116 150.281 269.937 149.812C270.759 149.343 271.595 149.108 272.445 149.108C273.325 149.108 274.015 149.372 274.513 149.9C275.041 150.399 275.305 151.059 275.305 151.88C275.305 152.701 275.071 153.347 274.601 153.816C274.161 154.256 273.633 154.476 273.017 154.476ZM261.137 162.836C261.959 162.836 262.575 162.367 262.985 161.428C263.425 160.489 263.645 158.891 263.645 156.632C263.645 154.373 263.425 152.775 262.985 151.836C262.575 150.897 261.959 150.428 261.137 150.428C260.316 150.428 259.685 150.897 259.245 151.836C258.835 152.775 258.629 154.373 258.629 156.632C258.629 158.891 258.835 160.489 259.245 161.428C259.685 162.367 260.316 162.836 261.137 162.836ZM292.85 149.636C295.079 149.636 296.692 150.208 297.69 151.352C298.188 151.909 298.54 152.628 298.746 153.508C298.951 154.388 299.054 155.576 299.054 157.072V168.908C299.054 170.111 299.259 170.947 299.67 171.416C300.11 171.856 300.843 172.076 301.87 172.076V173C298.936 172.883 297 172.824 296.062 172.824C295.182 172.824 293.275 172.883 290.342 173V172.076C291.222 172.076 291.838 171.856 292.19 171.416C292.542 170.947 292.718 170.111 292.718 168.908V155.224C292.718 154.021 292.512 153.112 292.102 152.496C291.72 151.88 291.016 151.572 289.99 151.572C288.787 151.572 287.76 152.071 286.91 153.068C286.059 154.036 285.634 155.239 285.634 156.676V168.908C285.634 170.111 285.81 170.947 286.162 171.416C286.514 171.856 287.13 172.076 288.01 172.076V173C285.311 172.883 283.492 172.824 282.554 172.824C281.674 172.824 279.65 172.883 276.482 173V172.076C277.538 172.076 278.271 171.856 278.682 171.416C279.092 170.947 279.298 170.111 279.298 168.908V155.048C279.298 153.699 279.092 152.716 278.682 152.1C278.271 151.484 277.538 151.176 276.482 151.176V150.252C277.42 150.34 278.33 150.384 279.21 150.384C281.82 150.384 283.962 150.179 285.634 149.768V153.728C286.954 151 289.359 149.636 292.85 149.636ZM312.221 149.636C313.336 149.636 314.362 149.783 315.301 150.076C316.24 150.34 316.958 150.648 317.457 151C317.75 151.205 318.014 151.308 318.249 151.308C318.513 151.308 318.733 151.176 318.909 150.912C319.114 150.619 319.246 150.208 319.305 149.68H320.229C320.112 151.176 320.053 153.757 320.053 157.424H319.129C318.865 155.488 318.278 153.875 317.369 152.584C316.489 151.264 315.198 150.604 313.497 150.604C312.617 150.604 311.884 150.853 311.297 151.352C310.74 151.851 310.461 152.54 310.461 153.42C310.461 154.417 310.798 155.283 311.473 156.016C312.148 156.72 313.204 157.585 314.641 158.612L315.917 159.536C317.706 160.885 319.026 162.088 319.877 163.144C320.728 164.2 321.153 165.52 321.153 167.104C321.153 168.395 320.772 169.539 320.009 170.536C319.276 171.533 318.278 172.296 317.017 172.824C315.756 173.352 314.362 173.616 312.837 173.616C311.224 173.616 309.845 173.308 308.701 172.692C307.762 172.223 307.088 171.915 306.677 171.768C306.384 171.68 306.12 171.783 305.885 172.076C305.68 172.34 305.518 172.751 305.401 173.308H304.477C304.594 171.636 304.653 168.703 304.653 164.508H305.577C306.164 169.905 308.144 172.604 311.517 172.604C312.368 172.604 313.086 172.355 313.673 171.856C314.289 171.328 314.597 170.536 314.597 169.48C314.597 168.659 314.406 167.925 314.025 167.28C313.673 166.635 313.218 166.063 312.661 165.564C312.104 165.065 311.268 164.376 310.153 163.496C308.833 162.44 307.821 161.589 307.117 160.944C306.442 160.299 305.856 159.536 305.357 158.656C304.888 157.776 304.653 156.793 304.653 155.708C304.653 153.831 305.386 152.349 306.853 151.264C308.32 150.179 310.109 149.636 312.221 149.636Z" fill="black"/>
</svg>
